<svg xmlns="http://www.w3.org/2000/svg" viewBox="0 0 1600 900" width="1600" height="900" font-family="'Segoe UI', Arial, sans-serif">
  <!-- Background -->
  <rect width="1600" height="900" fill="#FFFFFF"/>

  <!-- Left panel brand bar -->
  <rect x="0" y="0" width="950" height="48" fill="#071B3B"/>
  <rect x="0" y="0" width="4" height="48" fill="#D71920"/>
  <text x="20" y="30" fill="#FFFFFF" font-size="10" font-weight="700" letter-spacing="3" text-anchor="start" opacity="0.7">DURRAKA FACTORY FOR INDUSTRY</text>
  <text x="920" y="30" fill="#D71920" font-size="10" font-weight="700" letter-spacing="2" text-anchor="end" opacity="0.9">GRC / GFRC</text>

  <!-- Main illustration area background -->
  <rect x="0" y="48" width="950" height="802" fill="#F4F6F9"/>

  <!-- Grid lines subtle -->
  <line x1="0" y1="200" x2="950" y2="200" stroke="#071B3B" stroke-width="0.3" opacity="0.07"/>
  <line x1="0" y1="400" x2="950" y2="400" stroke="#071B3B" stroke-width="0.3" opacity="0.07"/>
  <line x1="0" y1="600" x2="950" y2="600" stroke="#071B3B" stroke-width="0.3" opacity="0.07"/>
  <line x1="200" y1="48" x2="200" y2="850" stroke="#071B3B" stroke-width="0.3" opacity="0.07"/>
  <line x1="475" y1="48" x2="475" y2="850" stroke="#071B3B" stroke-width="0.3" opacity="0.07"/>
  <line x1="750" y1="48" x2="750" y2="850" stroke="#071B3B" stroke-width="0.3" opacity="0.07"/>

  <!-- ── CORNICE ARCHITECTURAL CROSS-SECTION ILLUSTRATION ── -->

  <!-- Building facade wall (left side cutaway) -->
  <rect x="80" y="120" width="140" height="640" fill="#FFFFFF" stroke="#071B3B" stroke-width="1.5"/>
  <!-- Brick/block hatching on wall -->
  <line x1="80" y1="160" x2="220" y2="160" stroke="#071B3B" stroke-width="0.5" opacity="0.15"/>
  <line x1="80" y1="200" x2="220" y2="200" stroke="#071B3B" stroke-width="0.5" opacity="0.15"/>
  <line x1="80" y1="240" x2="220" y2="240" stroke="#071B3B" stroke-width="0.5" opacity="0.15"/>
  <line x1="80" y1="280" x2="220" y2="280" stroke="#071B3B" stroke-width="0.5" opacity="0.15"/>
  <line x1="80" y1="320" x2="220" y2="320" stroke="#071B3B" stroke-width="0.5" opacity="0.15"/>
  <line x1="80" y1="360" x2="220" y2="360" stroke="#071B3B" stroke-width="0.5" opacity="0.15"/>
  <line x1="80" y1="400" x2="220" y2="400" stroke="#071B3B" stroke-width="0.5" opacity="0.15"/>
  <line x1="80" y1="440" x2="220" y2="440" stroke="#071B3B" stroke-width="0.5" opacity="0.15"/>
  <line x1="80" y1="480" x2="220" y2="480" stroke="#071B3B" stroke-width="0.5" opacity="0.15"/>
  <line x1="80" y1="520" x2="220" y2="520" stroke="#071B3B" stroke-width="0.5" opacity="0.15"/>
  <line x1="80" y1="560" x2="220" y2="560" stroke="#071B3B" stroke-width="0.5" opacity="0.15"/>
  <line x1="80" y1="600" x2="220" y2="600" stroke="#071B3B" stroke-width="0.5" opacity="0.15"/>
  <line x1="80" y1="640" x2="220" y2="640" stroke="#071B3B" stroke-width="0.5" opacity="0.15"/>
  <line x1="80" y1="680" x2="220" y2="680" stroke="#071B3B" stroke-width="0.5" opacity="0.15"/>
  <line x1="80" y1="720" x2="220" y2="720" stroke="#071B3B" stroke-width="0.5" opacity="0.15"/>
  <!-- Vertical half lines -->
  <line x1="150" y1="140" x2="150" y2="740" stroke="#071B3B" stroke-width="0.5" opacity="0.08"/>

  <!-- Wall label -->
  <text x="150" y="800" fill="#071B3B" font-size="8" opacity="0.3" text-anchor="middle" letter-spacing="1">FACADE</text>

  <!-- Building roof slab -->
  <rect x="80" y="90" width="750" height="32" fill="#071B3B" opacity="0.12" stroke="#071B3B" stroke-width="1.5"/>
  <rect x="80" y="90" width="750" height="8" fill="#071B3B" opacity="0.06"/>

  <!-- ── ROOFLINE CORNICE (primary large cornice at parapet) ── -->
  <!-- Main cornice body -->
  <rect x="220" y="110" width="610" height="30" fill="#FFFFFF" stroke="#071B3B" stroke-width="1.5"/>
  <!-- Cornice facia (vertical face) -->
  <rect x="220" y="140" width="610" height="22" fill="#FFFFFF" stroke="#071B3B" stroke-width="1.5"/>
  <!-- Bed mold (under-soffit curve) -->
  <path d="M 220 162 Q 235 172 220 182" fill="none" stroke="#071B3B" stroke-width="1.2"/>
  <!-- Cornice soffit (underside) -->
  <rect x="220" y="162" width="30" height="38" fill="#FFFFFF" stroke="#071B3B" stroke-width="1.2"/>
  <!-- Corona (projection) -->
  <rect x="250" y="110" width="580" height="90" fill="none"/>
  <!-- Top fillet -->
  <rect x="220" y="106" width="614" height="6" fill="#FFFFFF" stroke="#071B3B" stroke-width="1"/>
  <!-- Red accent line on top cornice -->
  <rect x="220" y="108" width="610" height="3" fill="#D71920" opacity="0.7"/>

  <!-- ── PARAPET EDGE PROFILE ── -->
  <rect x="220" y="68" width="610" height="24" fill="#FFFFFF" stroke="#071B3B" stroke-width="1.2"/>
  <rect x="220" y="68" width="610" height="4" fill="#071B3B" opacity="0.08"/>
  <rect x="220" y="88" width="610" height="4" fill="#071B3B" opacity="0.06"/>

  <!-- ── HORIZONTAL FACADE TRANSITION (mid-wall string course) ── -->
  <!-- Window band above transition -->
  <rect x="220" y="250" width="610" height="140" fill="#FFFFFF" stroke="#071B3B" stroke-width="1"/>
  <!-- Windows in band -->
  <rect x="250" y="270" width="80" height="100" fill="#071B3B" opacity="0.07" stroke="#071B3B" stroke-width="1"/>
  <rect x="360" y="270" width="80" height="100" fill="#071B3B" opacity="0.07" stroke="#071B3B" stroke-width="1"/>
  <rect x="470" y="270" width="80" height="100" fill="#071B3B" opacity="0.07" stroke="#071B3B" stroke-width="1"/>
  <rect x="580" y="270" width="80" height="100" fill="#071B3B" opacity="0.07" stroke="#071B3B" stroke-width="1"/>
  <rect x="690" y="270" width="100" height="100" fill="#071B3B" opacity="0.07" stroke="#071B3B" stroke-width="1"/>
  <!-- Window arched tops -->
  <path d="M 250 270 Q 290 250 330 270" fill="#071B3B" opacity="0.07" stroke="#071B3B" stroke-width="0.8"/>
  <path d="M 360 270 Q 400 250 440 270" fill="#071B3B" opacity="0.07" stroke="#071B3B" stroke-width="0.8"/>
  <path d="M 470 270 Q 510 250 550 270" fill="#071B3B" opacity="0.07" stroke="#071B3B" stroke-width="0.8"/>
  <path d="M 580 270 Q 620 250 660 270" fill="#071B3B" opacity="0.07" stroke="#071B3B" stroke-width="0.8"/>
  <path d="M 690 270 Q 740 250 790 270" fill="#071B3B" opacity="0.07" stroke="#071B3B" stroke-width="0.8"/>

  <!-- String course (transition band) -->
  <rect x="220" y="390" width="610" height="16" fill="#FFFFFF" stroke="#071B3B" stroke-width="1.2"/>
  <rect x="220" y="390" width="610" height="4" fill="#071B3B" opacity="0.09"/>
  <rect x="220" y="400" width="610" height="3" fill="#071B3B" opacity="0.06"/>
  <!-- Shadow line below string course -->
  <rect x="220" y="405" width="610" height="6" fill="#071B3B" opacity="0.04"/>
  <!-- Red accent on string course -->
  <rect x="220" y="391" width="610" height="2" fill="#D71920" opacity="0.5"/>

  <!-- Lower facade panel -->
  <rect x="220" y="411" width="610" height="349" fill="#FFFFFF" stroke="#071B3B" stroke-width="1"/>
  <!-- Lower window band -->
  <rect x="250" y="440" width="80" height="110" fill="#071B3B" opacity="0.07" stroke="#071B3B" stroke-width="1"/>
  <rect x="360" y="440" width="80" height="110" fill="#071B3B" opacity="0.07" stroke="#071B3B" stroke-width="1"/>
  <rect x="470" y="440" width="80" height="110" fill="#071B3B" opacity="0.07" stroke="#071B3B" stroke-width="1"/>
  <rect x="580" y="440" width="80" height="110" fill="#071B3B" opacity="0.07" stroke="#071B3B" stroke-width="1"/>
  <rect x="690" y="440" width="100" height="110" fill="#071B3B" opacity="0.07" stroke="#071B3B" stroke-width="1"/>

  <!-- Ground base -->
  <rect x="80" y="760" width="750" height="10" fill="#071B3B" opacity="0.15"/>
  <line x1="60" y1="760" x2="900" y2="760" stroke="#071B3B" stroke-width="1.5" opacity="0.2"/>

  <!-- ── DETAILED CORNICE PROFILE (ZOOM CALLOUT) ── -->
  <!-- Zoom box indicator on facade -->
  <rect x="220" y="100" width="120" height="110" fill="none" stroke="#D71920" stroke-width="1.5" stroke-dasharray="5,3"/>

  <!-- Zoom detail panel -->
  <rect x="290" y="530" width="220" height="200" fill="#FFFFFF" stroke="#D71920" stroke-width="1.5" rx="1"/>
  <!-- Zoom label -->
  <text x="400" y="522" fill="#D71920" font-size="8" font-weight="700" letter-spacing="1" text-anchor="middle">CORNICE PROFILE DETAIL</text>
  <!-- Connection line from zoom box to detail -->
  <line x1="330" y1="210" x2="330" y2="530" stroke="#D71920" stroke-width="0.8" stroke-dasharray="4,3" opacity="0.6"/>
  <line x1="330" y1="530" x2="400" y2="530" stroke="#D71920" stroke-width="0.8" opacity="0.6"/>

  <!-- Profile inside zoom detail -->
  <!-- Top fillet -->
  <rect x="320" y="560" width="150" height="12" fill="#FFFFFF" stroke="#071B3B" stroke-width="1"/>
  <rect x="320" y="560" width="150" height="3" fill="#071B3B" opacity="0.1"/>
  <!-- Cyma recta curve -->
  <path d="M 320 572 Q 340 578 350 588 Q 360 598 380 602" fill="none" stroke="#071B3B" stroke-width="1.5"/>
  <rect x="380" y="572" width="90" height="32" fill="#FFFFFF" stroke="#071B3B" stroke-width="1"/>
  <!-- Corona -->
  <rect x="310" y="602" width="170" height="24" fill="#FFFFFF" stroke="#071B3B" stroke-width="1.5"/>
  <rect x="310" y="602" width="170" height="5" fill="#D71920" opacity="0.5"/>
  <!-- Bed mold -->
  <path d="M 310 626 Q 325 638 310 650" fill="none" stroke="#071B3B" stroke-width="1.2"/>
  <rect x="310" y="626" width="30" height="26" fill="#FFFFFF" stroke="#071B3B" stroke-width="1"/>
  <!-- Fascia -->
  <rect x="340" y="626" width="140" height="26" fill="#FFFFFF" stroke="#071B3B" stroke-width="1"/>
  <!-- Bottom fillet -->
  <rect x="310" y="650" width="170" height="10" fill="#071B3B" opacity="0.07" stroke="#071B3B" stroke-width="1"/>
  <!-- Label arrows in zoom -->
  <text x="480" y="568" fill="#071B3B" font-size="7.5" opacity="0.5">— Fillet</text>
  <text x="480" y="590" fill="#071B3B" font-size="7.5" opacity="0.5">— Cyma</text>
  <text x="480" y="615" fill="#071B3B" font-size="7.5" opacity="0.5">— Corona</text>
  <text x="480" y="640" fill="#071B3B" font-size="7.5" opacity="0.5">— Bed Mold</text>
  <text x="480" y="658" fill="#071B3B" font-size="7.5" opacity="0.5">— Fascia</text>

  <!-- ── CALLOUT LINES & NUMBERS ── -->

  <!-- Callout 1: Roofline Cornice -->
  <line x1="350" y1="140" x2="140" y2="200" stroke="#D71920" stroke-width="1" opacity="0.7" stroke-dasharray="4,3"/>
  <circle cx="350" cy="140" r="5" fill="#D71920"/>
  <circle cx="140" cy="200" r="14" fill="#D71920"/>
  <text x="140" y="205" fill="#FFFFFF" font-size="11" font-weight="800" text-anchor="middle">1</text>

  <!-- Callout 2: Parapet Edge Profile -->
  <line x1="475" y1="80" x2="875" y2="130" stroke="#D71920" stroke-width="1" opacity="0.7" stroke-dasharray="4,3"/>
  <circle cx="475" cy="80" r="5" fill="#D71920"/>
  <circle cx="875" cy="130" r="14" fill="#D71920"/>
  <text x="875" y="135" fill="#FFFFFF" font-size="11" font-weight="800" text-anchor="middle">2</text>

  <!-- Callout 3: Horizontal Facade Transition (string course) -->
  <line x1="475" y1="398" x2="875" y2="350" stroke="#D71920" stroke-width="1" opacity="0.7" stroke-dasharray="4,3"/>
  <circle cx="475" cy="398" r="5" fill="#D71920"/>
  <circle cx="875" cy="350" r="14" fill="#D71920"/>
  <text x="875" y="355" fill="#FFFFFF" font-size="11" font-weight="800" text-anchor="middle">3</text>

  <!-- Callout 4: Shadow Line Expression -->
  <line x1="250" y1="156" x2="140" y2="490" stroke="#D71920" stroke-width="1" opacity="0.7" stroke-dasharray="4,3"/>
  <circle cx="250" cy="156" r="5" fill="#D71920"/>
  <circle cx="140" cy="490" r="14" fill="#D71920"/>
  <text x="140" y="495" fill="#FFFFFF" font-size="11" font-weight="800" text-anchor="middle">4</text>

  <!-- Callout 5: Decorative Profile Shape -->
  <line x1="400" y1="640" x2="140" y2="660" stroke="#D71920" stroke-width="1" opacity="0.7" stroke-dasharray="4,3"/>
  <circle cx="400" cy="640" r="5" fill="#D71920"/>
  <circle cx="140" cy="660" r="14" fill="#D71920"/>
  <text x="140" y="665" fill="#FFFFFF" font-size="11" font-weight="800" text-anchor="middle">5</text>

  <!-- Callout 6: Finish/Surface Texture -->
  <line x1="600" y1="480" x2="875" y2="540" stroke="#D71920" stroke-width="1" opacity="0.7" stroke-dasharray="4,3"/>
  <circle cx="600" cy="480" r="5" fill="#D71920"/>
  <circle cx="875" cy="540" r="14" fill="#D71920"/>
  <text x="875" y="545" fill="#FFFFFF" font-size="11" font-weight="800" text-anchor="middle">6</text>

  <!-- Callout labels -->
  <text x="162" y="179" fill="#071B3B" font-size="9" font-weight="700" letter-spacing="1" opacity="0.6">ROOFLINE CORNICE</text>
  <text x="858" y="112" fill="#071B3B" font-size="9" font-weight="700" letter-spacing="1" text-anchor="end" opacity="0.6">PARAPET EDGE</text>
  <text x="858" y="332" fill="#071B3B" font-size="9" font-weight="700" letter-spacing="1" text-anchor="end" opacity="0.6">STRING COURSE</text>
  <text x="162" y="472" fill="#071B3B" font-size="9" font-weight="700" letter-spacing="1" opacity="0.6">SHADOW LINE</text>
  <text x="162" y="642" fill="#071B3B" font-size="9" font-weight="700" letter-spacing="1" opacity="0.6">PROFILE SHAPE</text>
  <text x="858" y="522" fill="#071B3B" font-size="9" font-weight="700" letter-spacing="1" text-anchor="end" opacity="0.6">SURFACE FINISH</text>

  <!-- Left panel footer strip -->
  <rect x="0" y="850" width="950" height="50" fill="#E8EBF0"/>
  <rect x="0" y="850" width="950" height="1" fill="#071B3B" opacity="0.12"/>
  <text x="30" y="871" fill="#071B3B" font-size="8.5" opacity="0.5" letter-spacing="0.5">For design understanding and early scope coordination only.</text>
  <text x="30" y="886" fill="#071B3B" font-size="8.5" opacity="0.5" letter-spacing="0.5">Detailed fixing, connection, and installation information is excluded.</text>

  <!-- Divider line -->
  <rect x="947" y="0" width="3" height="900" fill="#D71920" opacity="0.85"/>

  <!-- ── RIGHT PANEL ── -->
  <rect x="950" y="0" width="650" height="900" fill="#071B3B"/>
  <rect x="950" y="0" width="650" height="4" fill="#D71920"/>

  <!-- Title block -->
  <rect x="985" y="40" width="38" height="3" fill="#D71920"/>
  <text x="985" y="90" fill="#FFFFFF" font-size="28" font-weight="800" letter-spacing="-0.5">Cornice</text>
  <text x="985" y="125" fill="#FFFFFF" font-size="28" font-weight="800" letter-spacing="-0.5">Component</text>
  <text x="985" y="160" fill="#D71920" font-size="28" font-weight="800" letter-spacing="-0.5">Overview</text>
  <text x="985" y="192" fill="#FFFFFF" font-size="11" opacity="0.45" letter-spacing="1.5">GRC / GFRC ARCHITECTURAL FEATURE</text>
  <rect x="985" y="210" width="580" height="1" fill="#FFFFFF" opacity="0.08"/>

  <!-- Content cards -->
  <rect x="985" y="228" width="278" height="140" rx="2" fill="#FFFFFF" opacity="0.04" stroke="#FFFFFF" stroke-width="0.5" stroke-opacity="0.1"/>
  <rect x="985" y="228" width="3" height="140" fill="#D71920"/>
  <text x="1002" y="254" fill="#D71920" font-size="9" font-weight="800" letter-spacing="2">01 — ROOFLINE CORNICE</text>
  <text x="1002" y="276" fill="#FFFFFF" font-size="11.5" opacity="0.8" font-weight="600">Primary Crown Element</text>
  <foreignObject x="1002" y="286" width="248" height="72">
    <div xmlns="http://www.w3.org/1999/xhtml" style="color:rgba(255,255,255,0.55);font-size:10.5px;line-height:1.6;font-family:Arial,sans-serif;">The roofline cornice provides the principal architectural termination at the building top, creating a pronounced horizontal expression and clean visual boundary between facade and sky.</div>
  </foreignObject>

  <rect x="1277" y="228" width="278" height="140" rx="2" fill="#FFFFFF" opacity="0.04" stroke="#FFFFFF" stroke-width="0.5" stroke-opacity="0.1"/>
  <rect x="1277" y="228" width="3" height="140" fill="#D71920"/>
  <text x="1294" y="254" fill="#D71920" font-size="9" font-weight="800" letter-spacing="2">02 — PARAPET EDGE</text>
  <text x="1294" y="276" fill="#FFFFFF" font-size="11.5" opacity="0.8" font-weight="600">Top Edge Profile</text>
  <foreignObject x="1294" y="286" width="248" height="72">
    <div xmlns="http://www.w3.org/1999/xhtml" style="color:rgba(255,255,255,0.55);font-size:10.5px;line-height:1.6;font-family:Arial,sans-serif;">The parapet edge profile caps the building crown with a crisp, molded GRC/GFRC detail that provides weather protection and visual refinement at the uppermost boundary.</div>
  </foreignObject>

  <rect x="985" y="386" width="278" height="140" rx="2" fill="#FFFFFF" opacity="0.04" stroke="#FFFFFF" stroke-width="0.5" stroke-opacity="0.1"/>
  <rect x="985" y="386" width="3" height="140" fill="#D71920"/>
  <text x="1002" y="412" fill="#D71920" font-size="9" font-weight="800" letter-spacing="2">03 — STRING COURSE</text>
  <text x="1002" y="434" fill="#FFFFFF" font-size="11.5" opacity="0.8" font-weight="600">Horizontal Facade Transition</text>
  <foreignObject x="1002" y="444" width="248" height="72">
    <div xmlns="http://www.w3.org/1999/xhtml" style="color:rgba(255,255,255,0.55);font-size:10.5px;line-height:1.6;font-family:Arial,sans-serif;">Intermediate horizontal profiles — string courses, band courses, and sill lines — divide the facade vertically and create layered shadow expression at key floor transitions.</div>
  </foreignObject>

  <rect x="1277" y="386" width="278" height="140" rx="2" fill="#FFFFFF" opacity="0.04" stroke="#FFFFFF" stroke-width="0.5" stroke-opacity="0.1"/>
  <rect x="1277" y="386" width="3" height="140" fill="#D71920"/>
  <text x="1294" y="412" fill="#D71920" font-size="9" font-weight="800" letter-spacing="2">04 — PROFILE DETAIL</text>
  <text x="1294" y="434" fill="#FFFFFF" font-size="11.5" opacity="0.8" font-weight="600">Molding &amp; Shadow Line</text>
  <foreignObject x="1294" y="444" width="248" height="72">
    <div xmlns="http://www.w3.org/1999/xhtml" style="color:rgba(255,255,255,0.55);font-size:10.5px;line-height:1.6;font-family:Arial,sans-serif;">Each cornice profile is composed of classical molding members — fillets, cymas, coronas, and bed molds — that are produced as GRC/GFRC panels to any project drawing or profile specification.</div>
  </foreignObject>

  <!-- Divider -->
  <rect x="985" y="546" width="580" height="1" fill="#FFFFFF" opacity="0.08"/>

  <!-- Callout reference list -->
  <text x="985" y="574" fill="#FFFFFF" font-size="9" font-weight="700" letter-spacing="2" opacity="0.35">COMPONENT REFERENCES</text>

  <circle cx="998" cy="604" r="10" fill="#D71920" opacity="0.15" stroke="#D71920" stroke-width="1"/>
  <text x="998" y="608" fill="#D71920" font-size="9" font-weight="800" text-anchor="middle">1</text>
  <text x="1016" y="608" fill="#FFFFFF" font-size="11" opacity="0.65">Roofline Cornice — primary facade crown element</text>

  <circle cx="998" cy="632" r="10" fill="#D71920" opacity="0.15" stroke="#D71920" stroke-width="1"/>
  <text x="998" y="636" fill="#D71920" font-size="9" font-weight="800" text-anchor="middle">2</text>
  <text x="1016" y="636" fill="#FFFFFF" font-size="11" opacity="0.65">Parapet Edge Profile — top edge detail and capping</text>

  <circle cx="998" cy="660" r="10" fill="#D71920" opacity="0.15" stroke="#D71920" stroke-width="1"/>
  <text x="998" y="664" fill="#D71920" font-size="9" font-weight="800" text-anchor="middle">3</text>
  <text x="1016" y="664" fill="#FFFFFF" font-size="11" opacity="0.65">Horizontal Facade Transition — string course banding</text>

  <circle cx="998" cy="688" r="10" fill="#D71920" opacity="0.15" stroke="#D71920" stroke-width="1"/>
  <text x="998" y="692" fill="#D71920" font-size="9" font-weight="800" text-anchor="middle">4</text>
  <text x="1016" y="692" fill="#FFFFFF" font-size="11" opacity="0.65">Shadow Line Expression — depth and visual contrast</text>

  <circle cx="998" cy="716" r="10" fill="#D71920" opacity="0.15" stroke="#D71920" stroke-width="1"/>
  <text x="998" y="720" fill="#D71920" font-size="9" font-weight="800" text-anchor="middle">5</text>
  <text x="1016" y="720" fill="#FFFFFF" font-size="11" opacity="0.65">Decorative Profile Shape — molding member composition</text>

  <circle cx="998" cy="740" r="10" fill="#D71920" opacity="0.15" stroke="#D71920" stroke-width="1"/>
  <text x="998" y="744" fill="#D71920" font-size="9" font-weight="800" text-anchor="middle">6</text>
  <text x="1016" y="744" fill="#FFFFFF" font-size="11" opacity="0.65">Finish / Surface Texture — per project specification</text>

  <!-- Right panel bottom -->
  <rect x="950" y="800" width="650" height="100" fill="#FFFFFF" opacity="0.03"/>
  <rect x="950" y="800" width="650" height="1" fill="#FFFFFF" opacity="0.08"/>
  <text x="985" y="835" fill="#FFFFFF" font-size="9" opacity="0.3" letter-spacing="0.5">DURRAKA FACTORY FOR INDUSTRY — GRC/GFRC MANUFACTURING</text>
  <text x="985" y="855" fill="#FFFFFF" font-size="9" opacity="0.3" letter-spacing="0.5">durraka.com</text>
  <rect x="985" y="868" width="32" height="2" fill="#D71920" opacity="0.5"/>
</svg>
