<svg xmlns="http://www.w3.org/2000/svg" viewBox="0 0 1600 900" width="1600" height="900" font-family="'Segoe UI', Arial, sans-serif">
  <!-- Background -->
  <rect width="1600" height="900" fill="#FFFFFF"/>

  <!-- Left panel brand bar -->
  <rect x="0" y="0" width="950" height="48" fill="#071B3B"/>
  <rect x="0" y="0" width="4" height="48" fill="#D71920"/>
  <text x="20" y="30" fill="#FFFFFF" font-size="10" font-weight="700" letter-spacing="3" text-anchor="start" opacity="0.7">DURRAKA FACTORY FOR INDUSTRY</text>
  <text x="920" y="30" fill="#D71920" font-size="10" font-weight="700" letter-spacing="2" text-anchor="end" opacity="0.9">GRC / GFRC</text>

  <!-- Main illustration area background -->
  <rect x="0" y="48" width="950" height="802" fill="#F4F6F9"/>

  <!-- Grid lines subtle -->
  <line x1="0" y1="200" x2="950" y2="200" stroke="#071B3B" stroke-width="0.3" opacity="0.07"/>
  <line x1="0" y1="400" x2="950" y2="400" stroke="#071B3B" stroke-width="0.3" opacity="0.07"/>
  <line x1="0" y1="600" x2="950" y2="600" stroke="#071B3B" stroke-width="0.3" opacity="0.07"/>
  <line x1="200" y1="48" x2="200" y2="850" stroke="#071B3B" stroke-width="0.3" opacity="0.07"/>
  <line x1="475" y1="48" x2="475" y2="850" stroke="#071B3B" stroke-width="0.3" opacity="0.07"/>
  <line x1="750" y1="48" x2="750" y2="850" stroke="#071B3B" stroke-width="0.3" opacity="0.07"/>

  <!-- ── DECORATIVE PANEL FACADE ILLUSTRATION ── -->

  <!-- Building facade wall (left side cutaway) -->
  <rect x="80" y="120" width="140" height="640" fill="#FFFFFF" stroke="#071B3B" stroke-width="1.5"/>
  <line x1="80" y1="160" x2="220" y2="160" stroke="#071B3B" stroke-width="0.5" opacity="0.15"/>
  <line x1="80" y1="200" x2="220" y2="200" stroke="#071B3B" stroke-width="0.5" opacity="0.15"/>
  <line x1="80" y1="240" x2="220" y2="240" stroke="#071B3B" stroke-width="0.5" opacity="0.15"/>
  <line x1="80" y1="280" x2="220" y2="280" stroke="#071B3B" stroke-width="0.5" opacity="0.15"/>
  <line x1="80" y1="320" x2="220" y2="320" stroke="#071B3B" stroke-width="0.5" opacity="0.15"/>
  <line x1="80" y1="360" x2="220" y2="360" stroke="#071B3B" stroke-width="0.5" opacity="0.15"/>
  <line x1="80" y1="400" x2="220" y2="400" stroke="#071B3B" stroke-width="0.5" opacity="0.15"/>
  <line x1="80" y1="440" x2="220" y2="440" stroke="#071B3B" stroke-width="0.5" opacity="0.15"/>
  <line x1="80" y1="480" x2="220" y2="480" stroke="#071B3B" stroke-width="0.5" opacity="0.15"/>
  <line x1="80" y1="520" x2="220" y2="520" stroke="#071B3B" stroke-width="0.5" opacity="0.15"/>
  <line x1="80" y1="560" x2="220" y2="560" stroke="#071B3B" stroke-width="0.5" opacity="0.15"/>
  <line x1="80" y1="600" x2="220" y2="600" stroke="#071B3B" stroke-width="0.5" opacity="0.15"/>
  <line x1="80" y1="640" x2="220" y2="640" stroke="#071B3B" stroke-width="0.5" opacity="0.15"/>
  <line x1="80" y1="680" x2="220" y2="680" stroke="#071B3B" stroke-width="0.5" opacity="0.15"/>
  <line x1="80" y1="720" x2="220" y2="720" stroke="#071B3B" stroke-width="0.5" opacity="0.15"/>
  <line x1="150" y1="140" x2="150" y2="740" stroke="#071B3B" stroke-width="0.5" opacity="0.08"/>
  <text x="150" y="800" fill="#071B3B" font-size="8" opacity="0.3" text-anchor="middle" letter-spacing="1">FACADE</text>

  <!-- Ground line -->
  <rect x="80" y="760" width="750" height="10" fill="#071B3B" opacity="0.15"/>
  <line x1="60" y1="760" x2="900" y2="760" stroke="#071B3B" stroke-width="1.5" opacity="0.2"/>

  <!-- Main facade panel field (white surface) -->
  <rect x="220" y="120" width="610" height="640" fill="#FFFFFF" stroke="#071B3B" stroke-width="1.5"/>

  <!-- ── DECORATIVE PANEL FRAME (outer border) ── -->
  <rect x="232" y="132" width="586" height="616" fill="none" stroke="#071B3B" stroke-width="3"/>
  <!-- Frame inner step -->
  <rect x="250" y="150" width="550" height="580" fill="none" stroke="#071B3B" stroke-width="1.5"/>
  <!-- Red accent line on outer frame top -->
  <rect x="232" y="132" width="586" height="3" fill="#D71920" opacity="0.7"/>
  <!-- Frame depth shadow (inner fill) -->
  <rect x="250" y="150" width="550" height="580" fill="#F4F6F9"/>

  <!-- ── DIAMOND LATTICE PATTERN (repeating motif field) ── -->
  <!-- Defined via defs pattern for consistency -->
  <defs>
    <pattern id="diamondPat" x="0" y="0" width="66" height="58" patternUnits="userSpaceOnUse" patternTransform="translate(250,150)">
      <polygon points="33,6 53,29 33,52 13,29" fill="#FFFFFF" stroke="#071B3B" stroke-width="0.9" opacity="0.55"/>
    </pattern>
  </defs>
  <rect x="250" y="150" width="550" height="580" fill="url(#diamondPat)"/>

  <!-- ── CENTRAL MEDALLION (bespoke ornament) ── -->
  <!-- Outer ring -->
  <circle cx="525" cy="440" r="92" fill="#FFFFFF" stroke="#071B3B" stroke-width="2.5"/>
  <!-- Ring detail -->
  <circle cx="525" cy="440" r="82" fill="none" stroke="#071B3B" stroke-width="0.8" opacity="0.4"/>
  <!-- Mid ring -->
  <circle cx="525" cy="440" r="68" fill="#F4F6F9" stroke="#071B3B" stroke-width="1.5"/>
  <!-- Inner decorative ring -->
  <circle cx="525" cy="440" r="56" fill="#FFFFFF" stroke="#071B3B" stroke-width="1"/>
  <!-- Petal lobes (8-fold rosette) -->
  <ellipse cx="525" cy="390" rx="12" ry="22" fill="#FFFFFF" stroke="#071B3B" stroke-width="0.9" transform="rotate(0,525,440)"/>
  <ellipse cx="525" cy="390" rx="12" ry="22" fill="#FFFFFF" stroke="#071B3B" stroke-width="0.9" transform="rotate(45,525,440)"/>
  <ellipse cx="525" cy="390" rx="12" ry="22" fill="#FFFFFF" stroke="#071B3B" stroke-width="0.9" transform="rotate(90,525,440)"/>
  <ellipse cx="525" cy="390" rx="12" ry="22" fill="#FFFFFF" stroke="#071B3B" stroke-width="0.9" transform="rotate(135,525,440)"/>
  <ellipse cx="525" cy="390" rx="12" ry="22" fill="#FFFFFF" stroke="#071B3B" stroke-width="0.9" transform="rotate(180,525,440)"/>
  <ellipse cx="525" cy="390" rx="12" ry="22" fill="#FFFFFF" stroke="#071B3B" stroke-width="0.9" transform="rotate(225,525,440)"/>
  <ellipse cx="525" cy="390" rx="12" ry="22" fill="#FFFFFF" stroke="#071B3B" stroke-width="0.9" transform="rotate(270,525,440)"/>
  <ellipse cx="525" cy="390" rx="12" ry="22" fill="#FFFFFF" stroke="#071B3B" stroke-width="0.9" transform="rotate(315,525,440)"/>
  <!-- Centre boss -->
  <circle cx="525" cy="440" r="22" fill="#FFFFFF" stroke="#071B3B" stroke-width="1.5"/>
  <circle cx="525" cy="440" r="10" fill="#071B3B" opacity="0.08" stroke="#071B3B" stroke-width="1"/>

  <!-- ── CORNER ORNAMENTS ── -->
  <!-- Top-left -->
  <circle cx="308" cy="208" r="34" fill="#FFFFFF" stroke="#071B3B" stroke-width="1.5"/>
  <circle cx="308" cy="208" r="24" fill="#F4F6F9" stroke="#071B3B" stroke-width="1"/>
  <circle cx="308" cy="208" r="10" fill="#FFFFFF" stroke="#071B3B" stroke-width="1"/>
  <!-- Top-right -->
  <circle cx="742" cy="208" r="34" fill="#FFFFFF" stroke="#071B3B" stroke-width="1.5"/>
  <circle cx="742" cy="208" r="24" fill="#F4F6F9" stroke="#071B3B" stroke-width="1"/>
  <circle cx="742" cy="208" r="10" fill="#FFFFFF" stroke="#071B3B" stroke-width="1"/>
  <!-- Bottom-left -->
  <circle cx="308" cy="672" r="34" fill="#FFFFFF" stroke="#071B3B" stroke-width="1.5"/>
  <circle cx="308" cy="672" r="24" fill="#F4F6F9" stroke="#071B3B" stroke-width="1"/>
  <circle cx="308" cy="672" r="10" fill="#FFFFFF" stroke="#071B3B" stroke-width="1"/>
  <!-- Bottom-right -->
  <circle cx="742" cy="672" r="34" fill="#FFFFFF" stroke="#071B3B" stroke-width="1.5"/>
  <circle cx="742" cy="672" r="24" fill="#F4F6F9" stroke="#071B3B" stroke-width="1"/>
  <circle cx="742" cy="672" r="10" fill="#FFFFFF" stroke="#071B3B" stroke-width="1"/>

  <!-- ── ZOOM CALLOUT (edge profile cross-section) ── -->
  <!-- Dashed indicator box on frame -->
  <rect x="232" y="132" width="80" height="90" fill="none" stroke="#D71920" stroke-width="1.5" stroke-dasharray="5,3"/>
  <!-- Zoom detail panel -->
  <rect x="60" y="500" width="200" height="180" fill="#FFFFFF" stroke="#D71920" stroke-width="1.5" rx="1"/>
  <text x="160" y="492" fill="#D71920" font-size="8" font-weight="700" letter-spacing="1" text-anchor="middle">EDGE PROFILE DETAIL</text>
  <!-- Connection line -->
  <line x1="272" y1="222" x2="160" y2="500" stroke="#D71920" stroke-width="0.8" stroke-dasharray="4,3" opacity="0.6"/>
  <!-- Profile cross-section inside zoom -->
  <!-- Outer frame face -->
  <rect x="90" y="530" width="28" height="120" fill="#FFFFFF" stroke="#071B3B" stroke-width="1"/>
  <!-- Frame top projection -->
  <rect x="86" y="530" width="36" height="12" fill="#FFFFFF" stroke="#071B3B" stroke-width="1"/>
  <!-- Frame bottom projection -->
  <rect x="86" y="638" width="36" height="12" fill="#FFFFFF" stroke="#071B3B" stroke-width="1"/>
  <!-- Inner step -->
  <rect x="118" y="542" width="18" height="108" fill="#FFFFFF" stroke="#071B3B" stroke-width="1"/>
  <!-- Panel face -->
  <rect x="136" y="530" width="100" height="120" fill="#F4F6F9" stroke="#071B3B" stroke-width="1"/>
  <!-- Label text inside zoom -->
  <text x="148" y="643" fill="#071B3B" font-size="7.5" opacity="0.5" text-anchor="middle">— Panel Face</text>
  <text x="92" y="523" fill="#071B3B" font-size="7.5" opacity="0.5" text-anchor="middle">Frame</text>

  <!-- ── CALLOUT LINES AND NUMBERS ── -->

  <!-- Callout 1: Custom Decorative Panel (outer frame / overall system) -->
  <line x1="350" y1="132" x2="140" y2="200" stroke="#D71920" stroke-width="1" opacity="0.7" stroke-dasharray="4,3"/>
  <circle cx="350" cy="132" r="5" fill="#D71920"/>
  <circle cx="140" cy="200" r="14" fill="#D71920"/>
  <text x="140" y="205" fill="#FFFFFF" font-size="11" font-weight="800" text-anchor="middle">1</text>

  <!-- Callout 2: Bespoke Ornament (central medallion) -->
  <line x1="617" y1="440" x2="875" y2="300" stroke="#D71920" stroke-width="1" opacity="0.7" stroke-dasharray="4,3"/>
  <circle cx="617" cy="440" r="5" fill="#D71920"/>
  <circle cx="875" cy="300" r="14" fill="#D71920"/>
  <text x="875" y="305" fill="#FFFFFF" font-size="11" font-weight="800" text-anchor="middle">2</text>

  <!-- Callout 3: Relief Pattern (lattice field) -->
  <line x1="460" y1="340" x2="140" y2="360" stroke="#D71920" stroke-width="1" opacity="0.7" stroke-dasharray="4,3"/>
  <circle cx="460" cy="340" r="5" fill="#D71920"/>
  <circle cx="140" cy="360" r="14" fill="#D71920"/>
  <text x="140" y="365" fill="#FFFFFF" font-size="11" font-weight="800" text-anchor="middle">3</text>

  <!-- Callout 4: Edge Profile (frame border) -->
  <line x1="250" y1="440" x2="140" y2="470" stroke="#D71920" stroke-width="1" opacity="0.7" stroke-dasharray="4,3"/>
  <circle cx="250" cy="440" r="5" fill="#D71920"/>
  <!-- edge profile callout connects to zoom box label -->
  <circle cx="140" cy="480" r="14" fill="#D71920"/>
  <text x="140" y="485" fill="#FFFFFF" font-size="11" font-weight="800" text-anchor="middle">4</text>

  <!-- Callout 5: Repeating Motif (corner ornament) -->
  <line x1="308" y1="672" x2="140" y2="660" stroke="#D71920" stroke-width="1" opacity="0.7" stroke-dasharray="4,3"/>
  <circle cx="308" cy="672" r="5" fill="#D71920"/>
  <circle cx="140" cy="660" r="14" fill="#D71920"/>
  <text x="140" y="665" fill="#FFFFFF" font-size="11" font-weight="800" text-anchor="middle">5</text>

  <!-- Callout 6: Project-Specific Geometry (right side indicator) -->
  <line x1="700" y1="440" x2="875" y2="540" stroke="#D71920" stroke-width="1" opacity="0.7" stroke-dasharray="4,3"/>
  <circle cx="700" cy="440" r="5" fill="#D71920"/>
  <circle cx="875" cy="540" r="14" fill="#D71920"/>
  <text x="875" y="545" fill="#FFFFFF" font-size="11" font-weight="800" text-anchor="middle">6</text>

  <!-- Callout labels -->
  <text x="162" y="183" fill="#071B3B" font-size="9" font-weight="700" letter-spacing="1" opacity="0.6">DECORATIVE PANEL</text>
  <text x="858" y="282" fill="#071B3B" font-size="9" font-weight="700" letter-spacing="1" text-anchor="end" opacity="0.6">BESPOKE ORNAMENT</text>
  <text x="162" y="342" fill="#071B3B" font-size="9" font-weight="700" letter-spacing="1" opacity="0.6">RELIEF PATTERN</text>
  <text x="162" y="462" fill="#071B3B" font-size="9" font-weight="700" letter-spacing="1" opacity="0.6">EDGE PROFILE</text>
  <text x="162" y="643" fill="#071B3B" font-size="9" font-weight="700" letter-spacing="1" opacity="0.6">REPEATING MOTIF</text>
  <text x="858" y="522" fill="#071B3B" font-size="9" font-weight="700" letter-spacing="1" text-anchor="end" opacity="0.6">PROJECT GEOMETRY</text>

  <!-- Left panel footer strip -->
  <rect x="0" y="850" width="950" height="50" fill="#E8EBF0"/>
  <rect x="0" y="850" width="950" height="1" fill="#071B3B" opacity="0.12"/>
  <text x="30" y="871" fill="#071B3B" font-size="8.5" opacity="0.5" letter-spacing="0.5">For design understanding and early scope coordination only.</text>
  <text x="30" y="886" fill="#071B3B" font-size="8.5" opacity="0.5" letter-spacing="0.5">Detailed fixing, connection, and installation information is excluded.</text>

  <!-- Divider line -->
  <rect x="947" y="0" width="3" height="900" fill="#D71920" opacity="0.85"/>

  <!-- ── RIGHT PANEL ── -->
  <rect x="950" y="0" width="650" height="900" fill="#071B3B"/>
  <rect x="950" y="0" width="650" height="4" fill="#D71920"/>

  <!-- Title block -->
  <rect x="985" y="40" width="38" height="3" fill="#D71920"/>
  <text x="985" y="90" fill="#FFFFFF" font-size="28" font-weight="800" letter-spacing="-0.5">Custom</text>
  <text x="985" y="125" fill="#FFFFFF" font-size="28" font-weight="800" letter-spacing="-0.5">Decorative</text>
  <text x="985" y="160" fill="#D71920" font-size="28" font-weight="800" letter-spacing="-0.5">Overview</text>
  <text x="985" y="192" fill="#FFFFFF" font-size="11" opacity="0.45" letter-spacing="1.5">GRC / GFRC ARCHITECTURAL FEATURE</text>
  <rect x="985" y="210" width="580" height="1" fill="#FFFFFF" opacity="0.08"/>

  <!-- Content card 01: Decorative Panel -->
  <rect x="985" y="228" width="278" height="140" rx="2" fill="#FFFFFF" opacity="0.04" stroke="#FFFFFF" stroke-width="0.5" stroke-opacity="0.1"/>
  <rect x="985" y="228" width="3" height="140" fill="#D71920"/>
  <text x="1002" y="254" fill="#D71920" font-size="9" font-weight="800" letter-spacing="2">01 — DECORATIVE PANEL</text>
  <text x="1002" y="276" fill="#FFFFFF" font-size="11.5" opacity="0.8" font-weight="600">Custom Surface Element</text>
  <foreignObject x="1002" y="286" width="248" height="72">
    <div xmlns="http://www.w3.org/1999/xhtml" style="color:rgba(255,255,255,0.55);font-size:10.5px;line-height:1.6;font-family:Arial,sans-serif;">Project-specific GFRC/GRC decorative panels produced to custom design drawings — geometric patterns, calligraphy-inspired surfaces, or architectural identity elements at any scale.</div>
  </foreignObject>

  <!-- Content card 02: Bespoke Ornament -->
  <rect x="1277" y="228" width="278" height="140" rx="2" fill="#FFFFFF" opacity="0.04" stroke="#FFFFFF" stroke-width="0.5" stroke-opacity="0.1"/>
  <rect x="1277" y="228" width="3" height="140" fill="#D71920"/>
  <text x="1294" y="254" fill="#D71920" font-size="9" font-weight="800" letter-spacing="2">02 — BESPOKE ORNAMENT</text>
  <text x="1294" y="276" fill="#FFFFFF" font-size="11.5" opacity="0.8" font-weight="600">Medallion &amp; Rosette</text>
  <foreignObject x="1294" y="286" width="248" height="72">
    <div xmlns="http://www.w3.org/1999/xhtml" style="color:rgba(255,255,255,0.55);font-size:10.5px;line-height:1.6;font-family:Arial,sans-serif;">Bespoke ornamental features — medallions, rosettes, keystones, and sculptural relief elements — cast in GRC/GFRC to project design intent and confirmed geometry.</div>
  </foreignObject>

  <!-- Content card 03: Relief Pattern -->
  <rect x="985" y="386" width="278" height="140" rx="2" fill="#FFFFFF" opacity="0.04" stroke="#FFFFFF" stroke-width="0.5" stroke-opacity="0.1"/>
  <rect x="985" y="386" width="3" height="140" fill="#D71920"/>
  <text x="1002" y="412" fill="#D71920" font-size="9" font-weight="800" letter-spacing="2">03 — RELIEF PATTERN</text>
  <text x="1002" y="434" fill="#FFFFFF" font-size="11.5" opacity="0.8" font-weight="600">Surface Relief &amp; Texture</text>
  <foreignObject x="1002" y="444" width="248" height="72">
    <div xmlns="http://www.w3.org/1999/xhtml" style="color:rgba(255,255,255,0.55);font-size:10.5px;line-height:1.6;font-family:Arial,sans-serif;">Three-dimensional surface relief — geometric lattice, carved-effect patterns, and repeating ornamental textures produced in GRC/GFRC to any approved depth, profile, and pattern repeat.</div>
  </foreignObject>

  <!-- Content card 04: Edge Profile -->
  <rect x="1277" y="386" width="278" height="140" rx="2" fill="#FFFFFF" opacity="0.04" stroke="#FFFFFF" stroke-width="0.5" stroke-opacity="0.1"/>
  <rect x="1277" y="386" width="3" height="140" fill="#D71920"/>
  <text x="1294" y="412" fill="#D71920" font-size="9" font-weight="800" letter-spacing="2">04 — EDGE PROFILE</text>
  <text x="1294" y="434" fill="#FFFFFF" font-size="11.5" opacity="0.8" font-weight="600">Frame &amp; Border Expression</text>
  <foreignObject x="1294" y="444" width="248" height="72">
    <div xmlns="http://www.w3.org/1999/xhtml" style="color:rgba(255,255,255,0.55);font-size:10.5px;line-height:1.6;font-family:Arial,sans-serif;">Frame borders, edge profiles, and surround mouldings that define the decorative field — produced in GRC/GFRC to coordinate with both the panel geometry and surrounding facade elements.</div>
  </foreignObject>

  <!-- Divider -->
  <rect x="985" y="546" width="580" height="1" fill="#FFFFFF" opacity="0.08"/>

  <!-- Callout reference list -->
  <text x="985" y="574" fill="#FFFFFF" font-size="9" font-weight="700" letter-spacing="2" opacity="0.35">COMPONENT REFERENCES</text>

  <circle cx="998" cy="604" r="10" fill="#D71920" opacity="0.15" stroke="#D71920" stroke-width="1"/>
  <text x="998" y="608" fill="#D71920" font-size="9" font-weight="800" text-anchor="middle">1</text>
  <text x="1016" y="608" fill="#FFFFFF" font-size="11" opacity="0.65">Custom Decorative Panel — project-specific surface element</text>

  <circle cx="998" cy="632" r="10" fill="#D71920" opacity="0.15" stroke="#D71920" stroke-width="1"/>
  <text x="998" y="636" fill="#D71920" font-size="9" font-weight="800" text-anchor="middle">2</text>
  <text x="1016" y="636" fill="#FFFFFF" font-size="11" opacity="0.65">Bespoke Ornament — medallion, rosette, or relief centrepiece</text>

  <circle cx="998" cy="660" r="10" fill="#D71920" opacity="0.15" stroke="#D71920" stroke-width="1"/>
  <text x="998" y="664" fill="#D71920" font-size="9" font-weight="800" text-anchor="middle">3</text>
  <text x="1016" y="664" fill="#FFFFFF" font-size="11" opacity="0.65">Relief Pattern — repeating ornamental surface texture</text>

  <circle cx="998" cy="688" r="10" fill="#D71920" opacity="0.15" stroke="#D71920" stroke-width="1"/>
  <text x="998" y="692" fill="#D71920" font-size="9" font-weight="800" text-anchor="middle">4</text>
  <text x="1016" y="692" fill="#FFFFFF" font-size="11" opacity="0.65">Edge Profile — border frame and surround moulding</text>

  <circle cx="998" cy="716" r="10" fill="#D71920" opacity="0.15" stroke="#D71920" stroke-width="1"/>
  <text x="998" y="720" fill="#D71920" font-size="9" font-weight="800" text-anchor="middle">5</text>
  <text x="1016" y="720" fill="#FFFFFF" font-size="11" opacity="0.65">Repeating Motif — coordinated pattern across panel field</text>

  <circle cx="998" cy="740" r="10" fill="#D71920" opacity="0.15" stroke="#D71920" stroke-width="1"/>
  <text x="998" y="744" fill="#D71920" font-size="9" font-weight="800" text-anchor="middle">6</text>
  <text x="1016" y="744" fill="#FFFFFF" font-size="11" opacity="0.65">Project-Specific Geometry — confirmed from design drawings</text>

  <!-- Right panel bottom -->
  <rect x="950" y="800" width="650" height="100" fill="#FFFFFF" opacity="0.03"/>
  <rect x="950" y="800" width="650" height="1" fill="#FFFFFF" opacity="0.08"/>
  <text x="985" y="835" fill="#FFFFFF" font-size="9" opacity="0.3" letter-spacing="0.5">DURRAKA FACTORY FOR INDUSTRY — GRC/GFRC MANUFACTURING</text>
  <text x="985" y="855" fill="#FFFFFF" font-size="9" opacity="0.3" letter-spacing="0.5">durraka.com</text>
  <rect x="985" y="868" width="32" height="2" fill="#D71920" opacity="0.5"/>
</svg>
